<svg xmlns="http://www.w3.org/2000/svg" width="14" height="13" viewBox="0 0 14 13" fill="none">
  <path fill-rule="evenodd" clip-rule="evenodd" d="M6.83409 0.513672C3.40425 0.513672 0.618164 3.30039 0.618164 6.73101C0.618164 10.1616 3.40425 12.9484 6.83409 12.9484C10.2639 12.9484 13.05 10.1616 13.05 6.73101C13.05 3.30039 10.2639 0.513672 6.83409 0.513672ZM9.69061 9.12821C9.14665 9.77749 8.38017 10.2462 7.48173 10.4037C6.64777 10.5514 5.75942 10.4176 4.96992 9.96068C4.23618 9.53761 3.64163 8.86399 3.33048 8.00636C3.04029 7.21052 3.01774 6.31224 3.33053 5.45521C3.61967 4.659 4.17966 3.95637 4.97004 3.50096C5.70322 3.07691 6.58374 2.8987 7.48187 3.058C8.31603 3.20455 9.10506 3.63415 9.6907 4.33361C10.2355 4.98219 10.5639 5.81858 10.5639 6.73085C10.5636 7.57804 10.2776 8.42987 9.69061 9.12821Z" fill="white"/>
  <path fill-rule="evenodd" clip-rule="evenodd" d="M6.83358 4.47021C8.08193 4.47021 9.09392 5.48243 9.09392 6.73107C9.09392 7.9797 8.08193 8.99192 6.83358 8.99192C5.58523 8.99192 4.57324 7.9797 4.57324 6.73107C4.57324 5.48243 5.58523 4.47021 6.83358 4.47021Z" fill="white"/>
</svg>